<?xml version="1.0" encoding="utf-8"?>
<!-- Generator: Adobe Illustrator 22.0.1, SVG Export Plug-In . SVG Version: 6.00 Build 0)  -->
<svg version="1.1" xmlns="http://www.w3.org/2000/svg" xmlns:xlink="http://www.w3.org/1999/xlink" x="0px" y="0px"
	 viewBox="0 0 155 165" style="enable-background:new 0 0 155 165;" xml:space="preserve">
<style type="text/css">
	.st0{fill:#F1F1F1;}
	.st1{fill:none;}
	.st2{fill:#FF0000;}
	.st3{fill:#00FFFF;}
	.st4{fill:#FCEE21;}
	.st5{fill:#39B54A;}
</style>
<g id="bg">
</g>
<g id="icons">
	<g id="face">
		<path class="st0" d="M62.4,74.8c-4,0-7.2,3.2-7.2,7.2c0,4,3.2,7.2,7.2,7.2s7.2-3.2,7.2-7.2C69.7,78,66.4,74.8,62.4,74.8z
			 M97.1,74.8c-4,0-7.2,3.2-7.2,7.2c0,4,3.2,7.2,7.2,7.2s7.2-3.2,7.2-7.2C104.3,78,101.1,74.8,97.1,74.8z M79.8,18.5
			C47.9,18.5,22,44.4,22,76.2S47.9,134,79.8,134s57.7-25.9,57.7-57.7S111.6,18.5,79.8,18.5z M79.8,122.4
			c-25.5,0-46.2-20.7-46.2-46.2c0-1.7,0.1-3.3,0.3-5c13.6-6.1,24.4-17.2,30.1-31C74.4,55.1,91.6,64.7,111,64.7c4.5,0,8.8-0.5,13-1.5
			c1.2,4.1,1.9,8.5,1.9,13C125.9,101.7,105.2,122.4,79.8,122.4z"/>
		<path class="st1" d="M10.5,7H149v138.5H10.5V7z"/>
	</g>
</g>
</svg>
