<?xml version="1.0" encoding="utf-8"?>
<!-- Generator: Adobe Illustrator 22.0.1, SVG Export Plug-In . SVG Version: 6.00 Build 0)  -->
<svg version="1.1" xmlns="http://www.w3.org/2000/svg" xmlns:xlink="http://www.w3.org/1999/xlink" x="0px" y="0px"
	 viewBox="0 0 155 165" style="enable-background:new 0 0 155 165;" xml:space="preserve">
<style type="text/css">
	.st0{fill:#F1F1F1;}
</style>
<g id="bg">
</g>
<g id="icons">
	<g>
		<path class="st0" d="M153.4,82.1c-0.3,2.3-0.5,4.7-0.8,7c-1.4,10.3-4.9,19.9-10.4,28.7c-6.2,9.8-14,18-23.9,24.3
			c-5.1,3.3-10.6,5.8-16.4,7.8c-3.2,1.1-5.4-0.6-5.4-3.9c0-6.6,0-13.1,0-19.7c0-3.4-0.2-6.7-1.7-9.8c-0.8-1.7-2-3.2-3-4.9
			c2.8-0.5,5.7-0.9,8.6-1.6c7.7-2,14.7-5.4,19.4-12.1c3.5-5,5.1-10.7,5.8-16.6c0.5-4.6,0.7-9.3-0.3-13.9c-1-4.6-3-8.8-6.1-12.3
			c-0.8-0.9-0.9-1.7-0.5-2.9c2-6.1,1.1-12.1-1.1-17.9c-0.1-0.3-0.7-0.7-1.1-0.7c-2.7-0.4-5.2,0.3-7.6,1.5c-3.8,1.8-7.4,3.8-11.2,5.7
			c-0.7,0.4-1.7,0.6-2.4,0.4c-11.8-2.9-23.5-3-35.3,0.1c-1,0.3-1.8,0.1-2.6-0.5c-4.7-3.1-9.8-5.5-15.3-6.9c-0.1,0-0.3-0.1-0.4-0.1
			c-3.4-0.6-4-0.3-5,3c-1.6,5.4-1.9,10.9,0,16.3c0.2,0.4,0,1.2-0.3,1.5c-6.3,7.1-7.7,15.5-7,24.6c0.5,5.5,1.7,10.8,4.2,15.8
			c3.4,6.9,9.1,11.1,16.1,13.5c4.2,1.5,8.7,2.1,13.1,3.1c0.2,0.1,0.4,0.1,0.5,0.1c-1.1,2-2.2,4-3.3,6c-0.3,0.6-0.6,1.4-0.6,2.1
			c-0.1,1.7-1,2.5-2.5,2.9c-4.8,1.2-9.5,2.1-14-0.7c-2.4-1.5-4.2-3.6-5.6-6c-2.2-3.7-5.3-6.4-9.4-7.7c-1.5-0.4-3.2-0.4-4.8-0.3
			c-1.2,0.1-1.5,0.9-0.7,1.9c0.6,0.8,1.3,1.7,2.2,2.2c4,2.3,6.3,6,8.1,10.1c1.1,2.4,2,4.8,4.1,6.6c3.2,2.9,7,3.9,11.2,4.1
			c3.6,0.2,7.2,0,11,0c0,2.6,0,5.5,0,8.4c0,1.5,0.1,3.1,0.1,4.6c0,3.5-2.4,5.3-5.7,4.1c-11.2-3.8-21.1-9.8-29.3-18.3
			c-8-8.2-14.1-17.7-17.9-28.6c-2.1-6.2-3.4-12.6-3.9-19.1c0-0.6-0.2-1.2-0.2-1.7c0-3,0-5.9,0-8.9c0.1-0.5,0.2-1,0.3-1.6
			c0.5-3.4,0.8-6.9,1.5-10.2c4.3-18.8,14.3-33.8,29.9-45.1C44.2,8.5,56.3,3.9,69.6,2.6c11.3-1.1,22.3,0,33,3.8
			c15.6,5.5,28.2,15.1,37.5,28.8c6.2,9,10.4,18.9,12.1,29.8c0.4,2.8,0.8,5.5,1.2,8.3C153.4,76.2,153.4,79.2,153.4,82.1z"/>
	</g>
</g>
</svg>
