<?xml version="1.0" encoding="utf-8"?>
<!-- Generator: Adobe Illustrator 22.0.1, SVG Export Plug-In . SVG Version: 6.00 Build 0)  -->
<svg version="1.1" id="Layer_1" xmlns="http://www.w3.org/2000/svg" xmlns:xlink="http://www.w3.org/1999/xlink" x="0px" y="0px"
	 viewBox="0 0 612 792" style="enable-background:new 0 0 612 792;" xml:space="preserve">
<style type="text/css">
	.st0{fill:#FFFFFF;}
	.st1{fill:#F1F1F1;}
	.st2{fill:none;}
</style>
<path class="st2" d="M46.6,452.3c0-116.1,0-232.3,0-348.4c147.5,0,295,0,442.5,0c0,147.5,0,295,0,442.5c-116.1,0-232.3,0-348.5,0
	c0.9-1.2,1.8-2.5,2.8-3.6c87.6-88.4,175.2-176.8,262.8-265.2c1.1-1.1,2.1-2.2,2.6-2.7c-31.1-31.1-62.1-62.1-93.5-93.5
	c-0.6,0.8-1.5,2.1-2.6,3.2C225.3,272.8,137.9,361,50.5,449.2C49.3,450.3,47.9,451.3,46.6,452.3z"/>
<path class="st2" d="M346.7,155.8c31.1,31.1,61.9,61.9,92.9,92.9c0.1-0.1,0.6-0.4,0.9-0.8c13.7-15.3,27.5-30.5,41-46
	c9.3-10.7,9.1-23.2-0.7-33.3c-18.6-19-37.4-37.8-56.4-56.4c-10.3-10.1-23.5-10.4-33.9-0.4C375.5,126.3,361.1,141.3,346.7,155.8z"/>
<path class="st1" d="M46.6,452.3c1.3-1.1,2.7-2,3.9-3.2c87.4-88.2,174.8-176.4,262.2-264.6c1.1-1.1,2-2.5,2.6-3.2
	c31.4,31.4,62.3,62.3,93.5,93.5c-0.5,0.5-1.5,1.6-2.6,2.7C318.6,365.9,231,454.3,143.4,542.8c-1.1,1.1-1.9,2.4-2.8,3.6
	c-31.3,0-62.5,0-94,0C46.6,515,46.6,483.7,46.6,452.3z"/>
<path class="st1" d="M346.7,155.8c14.4-14.5,28.8-29.5,43.9-43.9c10.4-10,23.6-9.7,33.9,0.4c19,18.6,37.8,37.4,56.4,56.4
	c9.8,10.1,10,22.6,0.7,33.3c-13.5,15.5-27.3,30.7-41,46c-0.4,0.4-0.8,0.7-0.9,0.8C408.6,217.7,377.7,186.9,346.7,155.8z"/>
</svg>
